<svg xmlns="http://www.w3.org/2000/svg" xmlns:xlink="http://www.w3.org/1999/xlink" width="134" height="134" viewBox="0 0 134 134" fill="none">
<path d="M31.3236 101.537C27.3552 99.0598 24.361 97.191 22.1256 94.5826C20.1576 92.2861 18.6764 89.6138 17.7721 86.7278C16.745 83.4498 16.7471 79.9202 16.75 75.2423L16.7499 54.7955C16.7464 49.6158 16.7438 45.711 17.9709 42.1533C18.0044 42.0562 18.0386 41.9593 18.0734 41.8628L41.9557 55.1307L47.3787 45.3693L24.422 32.6156C26.8772 30.563 29.977 29.0157 33.8898 27.0626L53.1329 17.4412C56.9279 15.541 59.7931 14.1064 62.8821 13.5268C65.6038 13.0162 68.3968 13.0162 71.1185 13.5268C74.2075 14.1064 77.0727 15.541 80.8678 17.4412L100.111 27.0626C104.024 29.0157 107.124 30.563 109.579 32.6157L86.6223 45.3693L92.0453 55.1307L115.927 41.863C115.962 41.9595 115.996 42.0562 116.03 42.1533C117.257 45.7109 117.254 49.6157 117.251 54.7953L117.251 75.2423C117.253 79.9202 117.256 83.4498 116.229 86.7278C115.324 89.6138 113.843 92.2861 111.875 94.5826C109.64 97.1909 106.645 99.0598 102.677 101.537L83.4335 113.564C79.2519 116.181 76.0405 118.192 72.5838 119.119L72.5838 97.7084L61.4172 97.7084L61.4172 119.119C57.9603 118.192 54.749 116.182 50.5672 113.564L31.3236 101.537ZM64.352 49.367L60.6059 60.6053L49.3676 64.3514L49.3676 69.6482L60.6059 73.3943L64.352 84.6326L69.6488 84.6326L73.3949 73.3943L84.6332 69.6482L84.6332 64.3514L73.3949 60.6053L69.6488 49.367L64.352 49.367Z" fill-rule="evenodd"  fill="url(#linear_fill_1_3)" >
</path>
<defs>
<linearGradient id="linear_fill_1_3" x1="16.74957275390625" y1="13.143844604492188" x2="117.24954223632812" y2="119.11550903320312" gradientUnits="userSpaceOnUse">
<stop offset="0" stop-color="#ECF5FF"  />
<stop offset="1" stop-color="#D9ECFF"  />
</linearGradient>
</defs>
</svg>
