<svg xmlns="http://www.w3.org/2000/svg" xmlns:xlink="http://www.w3.org/1999/xlink" width="134" height="134" viewBox="0 0 134 134" fill="none">
<path d="M48.9028 22.3333L85.0973 22.3333C89.5916 22.3332 93.301 22.3332 96.3227 22.5801C99.4611 22.8365 102.346 23.3868 105.056 24.7675C109.258 26.9087 112.675 30.3252 114.816 34.5275C116.197 37.2373 116.747 40.1222 117.003 43.2606C117.25 46.2823 117.25 49.9916 117.25 54.4859L117.25 73.9276C117.25 78.4219 117.25 82.1312 117.003 85.1529C116.747 88.2913 116.197 91.1762 114.816 93.886C112.675 98.0882 109.258 101.505 105.056 103.646C102.346 105.027 99.4611 105.577 96.3227 105.833C93.301 106.08 89.5916 106.08 85.0971 106.08L83.9255 106.08L67 125.83L50.0746 106.08L48.9029 106.08C44.4084 106.08 40.699 106.08 37.6773 105.833C34.5389 105.577 31.654 105.027 28.9442 103.646C24.7419 101.505 21.3254 98.0882 19.1842 93.886C17.8035 91.1762 17.2532 88.2913 16.9968 85.1529C16.7499 82.1312 16.7499 78.4219 16.75 73.9275L16.75 54.4861C16.7499 49.9917 16.7499 46.2823 16.9968 43.2606C17.2532 40.1222 17.8035 37.2373 19.1842 34.5275C21.3254 30.3252 24.7419 26.9087 28.9442 24.7675C31.654 23.3868 34.5389 22.8365 37.6773 22.5801C40.699 22.3332 44.4084 22.3332 48.9028 22.3333ZM50.2502 42.3539L69.3129 61.4166L50.2502 80.4793L42.3541 72.5833L53.5208 61.4166L42.3541 50.25L50.2502 42.3539ZM89.3333 72.5833L67 72.5833L67 83.75L89.3333 83.75L89.3333 72.5833Z" fill-rule="evenodd"  fill="url(#linear_fill_1_28)" >
</path>
<defs>
<linearGradient id="linear_fill_1_28" x1="16.75" y1="22.33331298828125" x2="117.25" y2="125.84829711914062" gradientUnits="userSpaceOnUse">
<stop offset="0" stop-color="#ECF5FF"  />
<stop offset="1" stop-color="#D9ECFF"  />
</linearGradient>
</defs>
</svg>
